<?xml version="1.0" standalone="no"?>
<!DOCTYPE svg PUBLIC "-//W3C//DTD SVG 20010904//EN"
 "http://www.w3.org/TR/2001/REC-SVG-20010904/DTD/svg10.dtd">
<svg version="1.0" xmlns="http://www.w3.org/2000/svg"
 width="1280.000000pt" height="896.000000pt" viewBox="0 0 1280.000000 896.000000"
 preserveAspectRatio="xMidYMid meet">
<metadata>
Created by potrace 1.15, written by Peter Selinger 2001-2017
</metadata>
<g transform="translate(0.000000,896.000000) scale(0.100000,-0.100000)"
fill="#000000" stroke="none">
<path d="M6200 8953 c-124 -9 -368 -36 -470 -53 -63 -10 -144 -21 -180 -25
-36 -4 -108 -15 -160 -26 -52 -11 -180 -31 -285 -45 -384 -51 -1349 -231
-1495 -279 -41 -13 -120 -36 -175 -50 -338 -90 -741 -230 -1075 -374 -91 -39
-199 -86 -240 -103 -41 -18 -124 -60 -185 -94 -60 -33 -190 -102 -287 -153
-98 -51 -204 -111 -235 -135 -32 -23 -110 -75 -173 -115 -145 -93 -206 -140
-407 -320 -170 -151 -236 -226 -415 -470 -81 -110 -121 -175 -162 -266 -30
-66 -77 -171 -106 -234 -69 -153 -115 -295 -131 -411 -17 -119 -18 -727 -1
-946 18 -229 75 -414 210 -679 68 -132 87 -161 162 -240 l86 -90 23 -105 c70
-320 110 -432 251 -693 143 -264 259 -420 512 -689 122 -129 367 -326 503
-405 336 -194 372 -211 598 -287 141 -47 504 -141 677 -176 252 -50 350 -61
695 -72 425 -15 719 -3 1039 42 120 17 220 30 221 28 2 -2 -3 -59 -10 -128
-24 -220 -27 -331 -16 -515 18 -283 45 -397 140 -580 49 -95 143 -202 214
-243 42 -24 43 -23 22 63 -24 98 -19 231 15 395 38 190 70 286 129 390 27 47
68 123 91 170 105 211 213 343 371 453 97 68 461 244 549 266 153 38 398 54
720 47 449 -9 570 -19 785 -59 285 -53 400 -60 945 -54 475 5 540 9 765 48
288 49 501 98 650 150 50 17 155 52 235 78 165 54 365 140 490 211 47 26 125
69 173 95 49 26 157 98 240 160 84 61 213 154 288 206 324 223 487 405 672
746 148 271 207 488 281 1033 65 472 67 541 36 891 -23 257 -41 376 -76 504
-130 474 -297 827 -490 1036 -237 257 -388 388 -529 456 -38 18 -132 54 -208
79 -128 41 -149 45 -272 51 l-134 6 -101 118 c-139 163 -386 392 -512 477 -57
37 -134 89 -171 116 -74 52 -396 198 -631 285 -151 56 -360 116 -526 151 -58
12 -204 46 -325 75 -201 48 -368 78 -850 150 -93 14 -240 39 -325 55 -158 29
-387 54 -413 45 -24 -10 -579 15 -667 30 -78 13 -237 17 -350 8z"/>
</g>
</svg>
