<svg width="24" height="25" viewBox="0 0 24 25" fill="none" xmlns="http://www.w3.org/2000/svg">
<path opacity="0.1" fill-rule="evenodd" clip-rule="evenodd" d="M0 12.3857C0 5.75833 5.37258 0.385742 12 0.385742C18.6274 0.385742 24 5.75833 24 12.3857C24 19.0132 18.6274 24.3857 12 24.3857C5.37258 24.3857 0 19.0132 0 12.3857Z" fill="#F9F8F9"/>
<path fill-rule="evenodd" clip-rule="evenodd" d="M18.4001 12.377C18.4001 12.8098 18.356 13.242 18.2695 13.6633C18.1851 14.0746 18.0601 14.4784 17.8963 14.8644C17.7363 15.2436 17.5379 15.609 17.306 15.9498C17.0776 16.2884 16.8144 16.6061 16.5253 16.8957C16.2356 17.184 15.9169 17.4465 15.5784 17.6759C15.2365 17.9061 14.8706 18.1043 14.4912 18.265C14.1046 18.4279 13.6999 18.5527 13.2889 18.637C12.867 18.7238 12.4333 18.7681 11.9998 18.7681C11.566 18.7681 11.1323 18.7238 10.711 18.637C10.2994 18.5527 9.89471 18.4279 9.50844 18.265C9.12905 18.1043 8.76277 17.9061 8.42088 17.6759C8.08243 17.4465 7.76366 17.184 7.47458 16.8957C7.1852 16.6061 6.92205 16.2884 6.69329 15.9498C6.46265 15.609 6.26388 15.2436 6.10326 14.8644C5.93948 14.4784 5.81418 14.0746 5.72948 13.6633C5.64386 13.242 5.6001 12.8098 5.6001 12.377C5.6001 11.9438 5.64384 11.5107 5.72951 11.0903C5.8142 10.679 5.9395 10.2746 6.10328 9.88917C6.2639 9.5097 6.46268 9.14397 6.69332 8.80318C6.92207 8.46429 7.18523 8.14721 7.47461 7.85729C7.76369 7.56893 8.08245 7.30713 8.42091 7.07808C8.76279 6.84683 9.12908 6.64869 9.50846 6.48765C9.89474 6.32441 10.2994 6.19929 10.711 6.11566C11.1323 6.02954 11.5661 5.98584 11.9998 5.98584C12.4333 5.98584 12.8671 6.02954 13.2889 6.11566C13.6999 6.19931 14.1046 6.32443 14.4912 6.48765C14.8706 6.64866 15.2366 6.84683 15.5784 7.07808C15.9169 7.30713 16.2357 7.56893 16.5254 7.85729C16.8144 8.14721 17.0776 8.46429 17.306 8.80318C17.5379 9.14397 17.7363 9.50973 17.8963 9.88917C18.0601 10.2746 18.1851 10.679 18.2695 11.0903C18.356 11.5107 18.4001 11.9438 18.4001 12.377ZM9.66779 7.44037C8.14363 8.15908 7.00607 9.5615 6.65136 11.2516C6.79545 11.2529 9.07307 11.2816 11.6973 10.5854C10.7513 8.90708 9.74061 7.53745 9.66779 7.44037ZM12.1501 11.4258C9.33589 12.2671 6.63543 12.2066 6.53856 12.2028C6.53698 12.2615 6.53417 12.3183 6.53417 12.377C6.53417 13.7791 7.06389 15.0573 7.93456 16.0238C7.93268 16.0209 9.4284 13.3712 12.3779 12.4188C12.4492 12.3951 12.5217 12.3738 12.5936 12.3532C12.4564 12.0431 12.3067 11.7322 12.1501 11.4258ZM15.6094 8.28078C14.6471 7.4335 13.3836 6.91956 11.9998 6.91956C11.5557 6.91956 11.1247 6.97324 10.7119 7.07247C10.7938 7.18234 11.8204 8.5423 12.7551 10.2561C14.8174 9.48411 15.5959 8.30074 15.6094 8.28078ZM12.9661 13.2576C12.9539 13.2616 12.9418 13.2651 12.9299 13.2695C9.70507 14.3921 8.65196 16.6544 8.64057 16.6791C9.56845 17.3996 10.7323 17.8344 11.9998 17.8344C12.7567 17.8344 13.4777 17.6805 14.1337 17.4018C14.0527 16.925 13.7352 15.2536 12.9661 13.2576ZM15.054 16.9032C16.2812 16.0762 17.1528 14.763 17.396 13.242C17.2835 13.2058 15.7543 12.7224 13.9902 13.0048C14.7071 14.9721 14.9984 16.5743 15.054 16.9032ZM13.1758 11.0694C13.3027 11.3297 13.4255 11.5946 13.539 11.8608C13.5793 11.9563 13.6187 12.0499 13.6571 12.1435C15.5347 11.9076 17.3845 12.3045 17.4635 12.3208C17.451 11.0269 16.9876 9.83953 16.2207 8.90991C16.2104 8.92454 15.3338 10.1894 13.1758 11.0694Z" fill="white"/>
</svg>
