<svg width="1384" height="328" viewBox="0 0 1384 328" fill="none" xmlns="http://www.w3.org/2000/svg">
<rect width="1440" height="376" fill="#094B72"/>
<g opacity="0.12">
<path fill-rule="evenodd" clip-rule="evenodd" d="M449.643 36.466C449.539 15.1654 408.14 -8.78765 390.456 -21.1369C355.49 -45.5621 319.124 -68.1175 283.094 -91.0331C247.065 -113.949 210.938 -136.802 176.581 -161.961C154.274 -178.292 128.062 -196.685 112.933 -220.005C80.7036 -269.7 182.32 -262.32 208.642 -263.407C275.604 -266.184 352.41 -264.917 415.176 -290.795C452.645 -306.244 467.587 -332.154 459.539 -369.916C456.945 -382.197 449.267 -396.329 455.771 -408.293C462.716 -421.071 478.695 -428.445 491.956 -433.389C540.326 -451.404 595.94 -453.491 647.118 -455.752C702.304 -458.237 758.008 -457.51 812.805 -457.703C836.04 -457.783 860.306 -465.778 882.432 -472.276C911.438 -480.792 940.101 -490.359 968.868 -499.608C1032.15 -519.909 1097.36 -541.29 1164.32 -546.446C1206.25 -549.676 1252.08 -545.309 1284.65 -517.213C1301.01 -503.105 1309.57 -482.134 1319.02 -463.505C1330.47 -440.999 1341.46 -418.276 1353.64 -396.124C1392.9 -324.781 1448.94 -255.064 1539.9 -251.561C1553.66 -251.033 1567.17 -252.754 1580.87 -253.077C1589.59 -253.275 1597.35 -251.257 1600.6 -242.516C1608.75 -220.595 1583.13 -185.988 1572.62 -168.595C1549.62 -130.522 1523.68 -94.1577 1499.38 -56.8491C1483.31 -32.1754 1455.48 1.54274 1455.19 31.5213C1454.93 58.2325 1492.02 77.5391 1512.22 90.6959C1531.14 103.014 1565.42 120.252 1567.5 145.311C1568.5 157.461 1560.14 167.531 1551.4 175.345C1536.09 189.012 1518.45 198.652 1504.68 214.244C1482.09 239.825 1463.22 275.021 1466.29 309.491C1468.42 333.376 1482.65 349.017 1500.74 363.97C1508.35 370.256 1514.52 374.704 1514.93 384.91C1515.57 401.117 1508.95 418.268 1503.49 433.294C1483.96 487.071 1456.21 539.07 1425.35 587.623C1409.93 611.886 1393.27 636.075 1372.83 656.773C1359.43 670.365 1341.37 686.541 1320.95 686.522C1297.3 686.522 1272.27 678.347 1249.28 672.235C1206.35 660.811 1163.93 647.605 1121.68 634.057C1023.98 602.711 927.192 568.827 831.325 532.405C763.799 506.706 694.84 480.971 631.354 446.805C618.972 440.096 607.286 432.273 596.452 423.442C584.877 414.168 570.513 410.018 555.948 406.925C465.55 387.724 366.514 402.465 275.74 411.708C252.7 414.05 229.659 416.404 206.554 418.044C186.691 419.454 162.911 423.498 143.606 417.423C105.566 405.465 138.82 361.392 152.879 343.433C202.378 280.202 266.24 226.705 325.433 172.09C353.577 146.081 381.935 120.14 408.549 92.6588C422.407 78.3714 449.734 55.139 449.643 36.466Z" stroke="white"/>
<path fill-rule="evenodd" clip-rule="evenodd" d="M466.701 32.8751C451.529 10.3359 424.91 -6.3233 402.814 -22.0014C371.017 -44.5717 338.22 -65.8877 305.917 -87.8184C275.372 -108.557 244.762 -129.531 216.475 -153.083C199.227 -167.445 177.585 -184.619 169.415 -205.861C151.693 -251.901 247.033 -244.916 270.57 -246.121C329.083 -249.101 395.423 -249.784 449.556 -274.025C483.358 -289.163 497.245 -314.266 490.036 -349.118C487.544 -361.176 483.054 -371.471 488.738 -383.467C495.312 -397.351 510.432 -406.006 524.293 -412.116C567.712 -431.259 619.035 -435.326 666.102 -438.71C714.726 -442.206 765.387 -444.671 812.447 -442.113C831.266 -441.094 852.927 -446.875 871.551 -451.308C900.208 -458.138 928.572 -466.018 957.086 -473.345C1015.03 -488.247 1074.49 -502.602 1134.77 -504.235C1178.3 -505.415 1223.68 -499.019 1259.89 -474.301C1296.58 -449.234 1312.86 -410.378 1333.22 -373.439C1368.36 -309.578 1415.83 -231.933 1497.14 -218.44C1509.47 -216.391 1521.32 -217.503 1533.64 -217C1539.97 -216.745 1547.18 -215.938 1550.39 -209.959C1558.73 -194.436 1535.88 -166.054 1528.19 -154.163C1506.95 -121.304 1483.06 -90.0537 1460.79 -57.8282C1443.11 -32.2403 1420.7 -3.80857 1413.86 26.5231C1405.56 63.331 1459.79 89.5212 1478.86 115.438C1511.92 160.38 1449.28 185.987 1418.4 207.414C1382.94 232.015 1353.66 276.895 1385.45 314.957C1397.61 329.511 1412.58 338.185 1418.01 357.179C1426.5 386.884 1420.08 420.829 1413.19 450.192C1402.81 494.333 1386.38 537.996 1364.04 577.889C1348.04 606.452 1321.49 651.238 1282.61 647.879C1256.44 645.638 1229.84 637.448 1204.35 630.208C1166.2 619.373 1128.52 607.023 1091.04 594.195C1004.54 564.664 918.981 532.103 835.108 496.289C777.879 471.843 618.244 371.944 606.232 368.38C570.418 357.763 529.698 359.632 492.774 361.277C443.657 363.463 394.787 369.125 345.955 374.372C322.711 376.856 299.35 379.892 275.982 381.115C259.35 381.985 237.507 382.73 222.939 373.472C194.503 355.409 226.183 314.081 239.285 296.596C279.421 242.993 330.193 196.573 377.798 149.11C401.159 125.807 424.877 102.542 446.084 77.3698C454.637 67.2055 476.078 46.796 466.701 32.8751Z" stroke="white"/>
<path fill-rule="evenodd" clip-rule="evenodd" d="M487.69 21.3156C446.256 -23.7879 389.068 -57.3329 339.712 -95.0019C314.94 -113.914 290.012 -133.342 268.646 -155.869C257.531 -167.582 243.653 -182.395 241.512 -198.724C235.789 -242.405 321.72 -236.498 347.439 -238.157C397.166 -241.374 453.341 -243.815 498.454 -266.106C526.016 -279.732 539.59 -302.098 534.438 -331.494C532.154 -344.537 528.599 -355.617 534.438 -368.424C540.356 -381.398 552.683 -390.553 565.167 -397.416C601.041 -417.155 645.622 -423.465 686.011 -428.167C733.392 -433.643 781.129 -435.781 828.838 -434.564C870.622 -433.514 912.206 -445.321 953.004 -453.103C1007.05 -463.407 1062.08 -472.407 1117.38 -471.047C1161.06 -469.966 1205.09 -461.476 1242.43 -438.911C1280.37 -415.931 1303.18 -381.535 1323.75 -344.419C1354.84 -288.31 1393.59 -213.121 1461.8 -191.811C1471.72 -188.706 1480.97 -188.364 1491.2 -187.824C1496.17 -187.563 1502.59 -187.482 1505.05 -182.52C1510.98 -170.57 1489.06 -147.403 1482.94 -139.329C1463.41 -113.554 1442.24 -88.9401 1422.22 -63.5065C1403.54 -39.7623 1383.18 -15.0181 1371.58 12.8067C1353.1 57.1214 1412.16 83.0332 1410.51 125.261C1409.47 151.477 1383.26 170.278 1362.49 183.283C1336.93 199.276 1300.12 209.791 1287.33 238.976C1277.79 260.714 1292.75 273.366 1304.27 289.862C1323.78 317.811 1325.11 355.698 1323.08 388.05C1320.34 431.769 1309.65 476.133 1291.43 516.317C1283.18 534.534 1273.07 553.483 1258.19 567.632C1244.24 580.892 1231.05 584.289 1212.41 581.575C1155.37 573.253 1097.77 550.055 1043.07 529.335C974.338 503.299 906.554 474.555 840.796 442.215C795.955 420.16 750.102 396.826 710.745 366.355C700.487 358.412 689.982 349.779 682.481 339.301C676.811 331.425 674.404 324.923 664.846 320.426C636.518 307.104 597.115 310.588 566.763 311.973C518.23 314.178 469.932 320.047 421.698 325.333C393.552 328.438 340.529 338.208 318.054 314.774C298.654 294.539 322.064 260.037 334.022 242.212C364.27 197.134 403.18 157.57 439.281 116.833C455.826 98.163 473.02 79.3502 486.684 58.5934C490.175 53.3017 495.768 46.2896 496.728 39.8614C497.805 32.4952 492.777 26.8744 487.69 21.3156Z" stroke="white"/>
<path fill-rule="evenodd" clip-rule="evenodd" d="M491.252 31.8156C452.966 -8.06415 406.84 -40.827 365.737 -78.1459C347.308 -94.8785 328.697 -112.432 314.654 -132.844C307.1 -143.821 299.08 -157.638 301.163 -171.282C307.139 -210.44 377.814 -206.904 406.367 -209.197C448.793 -212.566 497.534 -215.96 535.048 -237.074C559.623 -250.904 568.838 -271.329 564.25 -297.671C559.325 -325.927 570.337 -346.439 595.398 -362.202C626.819 -381.949 666.482 -389.999 702.964 -395.717C746.919 -402.574 791.43 -405.613 835.955 -404.798C879.258 -404.003 921.211 -410.952 964.228 -415.47C1021.26 -421.456 1080.13 -424.409 1136.52 -412.139C1185.62 -401.454 1229.96 -377.909 1263.21 -341.498C1297.93 -303.495 1315.12 -255.616 1343.32 -213.573C1360.9 -187.349 1385.43 -152.659 1418.29 -142.466C1429.25 -139.066 1449.22 -143.653 1440.47 -126.926C1435.47 -117.361 1426.1 -108.969 1418.7 -101.15C1406.75 -88.5136 1394.4 -76.2252 1382.25 -63.7628C1356.34 -37.197 1328.6 -10.0656 1309.18 21.3919C1284.72 60.9982 1321.09 91.4798 1316.65 131.639C1314.27 153.251 1298.58 170.5 1281.98 184.05C1271.24 192.826 1259.49 200.428 1247.49 207.52C1234.96 214.929 1220.13 220.573 1209.2 230.151C1193.63 243.782 1200.39 259.918 1203.31 277.54C1208.45 308.508 1209.58 339.965 1206.67 371.198C1203.12 409.48 1194.78 448.856 1177.21 483.645C1170.38 497.189 1161.72 511.547 1148.87 520.629C1136.01 529.71 1122.72 529.088 1107.98 526.353C1064.29 518.273 1020.69 499.47 979.245 481.65C927.369 459.342 876.513 434.411 827.948 406.049C794.424 386.469 760.79 365.318 732.744 338.77C724.587 331.044 716.825 322.771 710.55 313.535C706.241 307.201 703.931 299.027 697.689 294.266C678.156 279.404 638.941 283.842 616.034 284.706C570.318 286.428 525.321 294.614 479.663 296.603C454.744 297.691 415.718 300.426 397.418 280.107C380.208 261.006 395.795 230.922 406.081 212.518C426.295 176.33 453.452 144.089 477.794 110.45C487.8 96.6078 498.767 82.1253 505.25 66.3188C511.012 52.2341 501.064 42.0404 491.252 31.8156Z" stroke="white"/>
<path fill-rule="evenodd" clip-rule="evenodd" d="M500.669 32.468C470.194 -2.62506 433.456 -33.7768 402.76 -69.4409C384.793 -90.3266 353.851 -125.438 367.747 -154.883C382.991 -187.239 436.127 -188.12 466.842 -190.727C503.399 -193.831 546.33 -198.07 577.615 -218.273C587.51 -224.66 595.939 -233.113 599.512 -244.248C603.337 -256.165 599.155 -266.592 598.61 -278.522C597.469 -303.548 613.07 -323.639 633.715 -337.437C662.893 -356.944 699.379 -366.168 733.841 -372.598C772.885 -379.85 812.578 -383.426 852.35 -383.273C890.359 -383.149 927.967 -383.956 966.015 -384.887C1015.77 -386.129 1066.23 -384.124 1114.5 -371.468C1162.05 -358.993 1205.28 -335.612 1239.23 -301.22C1272.36 -267.66 1294.71 -226.64 1314.29 -184.856C1325.39 -161.14 1344.16 -125.699 1370.65 -113.72C1382.43 -108.388 1393.99 -108.755 1381.47 -94.8886C1365.69 -77.429 1344.43 -63.4203 1326.16 -48.4868C1299.8 -26.937 1272.78 -4.96502 1250.66 20.6565C1236.53 37.0175 1230.23 52.8944 1231.21 74.0781C1231.96 90.2157 1235.37 106.186 1233.64 122.385C1229.6 160.408 1198.33 186.483 1170.68 210.763C1152.9 226.38 1136.66 238.29 1127.5 260.504C1116.67 286.759 1112.13 315.323 1104.89 342.583C1096.94 372.518 1087.76 403.657 1070.41 430.024C1054.96 453.498 1036.18 464.024 1008.06 457.7C964.212 447.843 920.99 423.562 882.06 401.1C842.436 378.247 803.493 352.551 770.658 321.138C752.93 304.175 740.831 284.258 725.088 266.035C705.286 243.157 660.487 251.821 633.864 253.758C589.669 256.973 450.606 281.03 463.438 203.111C468.794 170.587 489.886 140.571 505.312 111.871C511.705 99.9603 520.958 85.6662 522.404 72.0175C523.979 57.1523 509.831 43.0319 500.669 32.468Z" stroke="white"/>
<path fill-rule="evenodd" clip-rule="evenodd" d="M516.759 35.4478C493.471 3.6464 465.6 -26.3975 445.618 -60.745C432.654 -82.9893 419.925 -112.71 436.647 -136.246C455.521 -162.806 497.14 -168.998 527.72 -172.382C559.227 -175.866 596.839 -178.797 622.591 -198.936C630.783 -205.351 637.537 -214.002 638.794 -224.36C640.007 -234.296 636.584 -244.232 637.719 -254.348C640.259 -277.064 654.642 -295.781 673.186 -309.356C728.039 -349.516 809.681 -358.446 875.865 -359.496C908.992 -360.017 943.085 -357.279 976.426 -355.316C1019.69 -352.77 1063.02 -347.305 1104.28 -334.134C1192.01 -306.139 1250.81 -244.052 1291.88 -166.793C1304.8 -142.475 1314.69 -116.163 1334.95 -96.6203C1345.39 -86.529 1343.11 -79.2819 1332.43 -70.0787C1315.74 -55.6963 1295.38 -44.7046 1276.86 -32.7007C1250.51 -15.6294 1223.6 1.69648 1200.3 22.146C1184.24 36.2427 1172.84 49.824 1169.38 70.9628C1166.91 86.0345 1167.48 101.392 1166 116.557C1163.17 145.365 1153.5 173.956 1136.37 197.852C1122.75 216.792 1106.55 234.006 1089.8 250.419C1068.03 271.788 1049.62 293.498 1033.08 318.86C1011.16 352.431 980.361 414.357 928.728 397.969C871.781 379.885 818.406 333.938 781.869 289.418C769.599 274.471 759.527 256.139 742.979 245.116C718.207 228.641 693.071 229.218 663.606 229.287C619.492 229.38 523.5 238.552 522.463 175.26C522.055 150.184 533.385 126.474 538.81 102.354C544.928 75.3409 532.665 57.1207 516.759 35.4478Z" stroke="white"/>
<path fill-rule="evenodd" clip-rule="evenodd" d="M534.105 38.2832C511.07 -3.16442 459.416 -71.2715 498.703 -117.361C519.455 -141.718 556.161 -150.871 586.953 -156.326C611.732 -160.738 641.616 -162.395 660.339 -181.099C674.1 -194.851 667.991 -214.864 673.264 -232.079C679.807 -253.42 694.827 -270.883 713.284 -284.008C764.86 -320.689 836.573 -331.946 898.616 -334.342C963.053 -336.824 1034.05 -325.213 1094.69 -302.879C1170.29 -275.022 1226.93 -222.274 1266.55 -155.476C1273.85 -143.145 1280.5 -130.492 1287.51 -118.013C1292.23 -109.641 1299.22 -101.543 1302.93 -92.7369C1309.12 -78.0543 1301.83 -66.0525 1290.14 -56.4834C1273.34 -42.7069 1252.69 -32.9019 1233.52 -22.5633C1207.32 -8.41442 1180.53 5.48004 1156.15 22.0802C1139.77 33.2504 1122.62 45.2831 1116.76 64.6634C1112.76 77.8815 1111.93 91.8814 1112.07 105.571C1112.38 134.924 1110.77 158.66 1096.47 185.543C1072.92 229.678 1036.72 269.363 998.481 302.383C968.468 328.298 920.977 368.554 877.248 351.228C838.013 335.714 815.062 298.579 789.212 268.556C776.644 253.961 762.525 240.631 745.936 230.249C725.022 217.161 705.333 211.669 680.553 209.528C638.847 205.923 575.96 204.986 563.068 157.078C558.308 139.398 561.025 121.085 558.528 103.176C555.266 79.4949 545.727 59.19 534.105 38.2832Z" stroke="white"/>
<path fill-rule="evenodd" clip-rule="evenodd" d="M558.058 39.818C541.654 -5.53368 520.105 -62.6892 559.723 -102.996C578.913 -122.522 605.906 -133.438 632.031 -141.595C650.741 -147.441 680.45 -149.162 691.921 -167.135C700.347 -180.361 701.513 -198.608 709.135 -212.778C719.608 -232.261 735.473 -248.308 754.087 -260.87C802.577 -293.604 865.733 -306.253 923.33 -309.875C1048.48 -317.733 1175.81 -255.142 1242.78 -152.162C1262.75 -121.466 1288.52 -88.7944 1256.26 -57.4334C1221.02 -23.2209 1167.95 -7.19244 1125.9 17.1173C1109.84 26.3989 1089.36 37.5566 1080.4 54.3616C1075.01 64.4632 1074.64 77.1368 1074.39 88.2573C1073.75 116.58 1071.29 142.052 1059.4 168.48C1041.03 209.321 1011.74 247.001 978.554 277.865C949.61 304.777 908.333 336.406 866.297 317.004C834.068 302.094 813.627 270.447 788.585 247.119C760.716 221.138 726.251 203.631 688.402 195.076C651.584 186.776 611.201 181.179 591.797 145.916C585.141 133.82 578.187 118.158 575.692 104.77C571.664 82.6963 565.766 60.9737 558.058 39.818Z" stroke="white"/>
<path fill-rule="evenodd" clip-rule="evenodd" d="M584.765 40.1375C577.177 -5.65805 576.334 -53.4101 611.591 -89.5036C628.046 -106.342 648.847 -118.305 669.881 -129.144C685.356 -137.119 701.338 -143.846 712.896 -156.921C723.604 -169.026 731.744 -183.082 742.083 -195.505C755.721 -211.967 772.039 -226.218 790.41 -237.71C836.46 -266.462 892.48 -279.909 946.074 -284.574C972.018 -286.841 1000.16 -288.021 1025.93 -281.841C1050.82 -275.878 1075.42 -266.45 1098.31 -255.456C1146.95 -232.108 1189.11 -197.915 1219.67 -154.684C1240.63 -125.032 1251.96 -96.1994 1224.82 -66.1183C1194.23 -32.2111 1146.26 -13.5028 1106.72 8.50361C1079.6 23.5969 1049.21 38.3922 1044.14 70.467C1040.11 95.989 1036.83 120.213 1026.4 144.337C1010.86 179.921 988.027 212.155 959.24 239.127C932.913 263.699 899.608 284.55 861.95 271.426C832.115 261.009 808.966 237.674 782.899 220.99C753.848 202.357 721.931 192.083 688.321 183.822C658.115 176.369 629.674 164.915 610.151 140.598C606.156 135.629 601.96 130.219 598.879 124.66C594.948 117.567 595.253 110.536 594.481 102.585C592.471 81.6038 588.196 60.8644 584.765 40.1375Z" stroke="white"/>
<path fill-rule="evenodd" clip-rule="evenodd" d="M614.213 36.3944C614.862 -7.10458 625.785 -48.2146 655.704 -82.1142C668.495 -96.6159 683.769 -108.561 697.844 -121.849C709.176 -132.562 719.886 -142.516 732.916 -151.344C763.827 -172.248 788.949 -199.298 821.798 -217.912C865.649 -242.796 915.879 -256.552 965.72 -262.051C990.057 -264.739 1015.2 -265.678 1039.82 -262.642C1060.97 -260.036 1081.22 -250.884 1100.01 -241.521C1136.83 -223.181 1172.58 -197.114 1196.49 -164.135C1249.21 -91.4274 1145.28 -38.5655 1091.94 -7.60854C1067.4 6.63189 1029.92 23.1245 1019.87 51.3316C1012.69 71.4822 1008.31 91.9749 999.061 111.503C974.212 163.949 923.768 225.632 856.546 217.42C827.782 213.911 801.564 199.658 774.712 190.09C747.062 180.236 718.524 174.742 689.785 168.714C662.926 163.084 641.519 155.071 624.171 133.589C615.879 123.33 616.612 111.049 615.873 98.4637C614.667 77.7905 613.922 56.9991 614.213 36.3944Z" stroke="white"/>
<path fill-rule="evenodd" clip-rule="evenodd" d="M641.028 30.8227C651.828 -34.835 691.937 -106.515 750.913 -144.645C820.286 -189.499 895.442 -227.27 978.328 -238.128C1016.76 -243.163 1058.85 -245.64 1095.11 -229.176C1122.71 -216.654 1154.76 -197.936 1169.95 -171.614C1207.11 -107.229 1124.46 -55.9739 1077.37 -26.187C1052.02 -10.1513 1019.75 5.47466 1000.65 28.8919C989.563 42.4692 983.903 60.4295 974.953 75.3415C947.831 120.531 903.185 156.979 847.571 163.498C821.857 166.509 795.955 162.784 770.435 159.822C744.312 156.793 717.865 155.148 691.904 150.92C671.181 147.543 646.759 141.825 639.126 120.587C629.501 93.8233 636.621 57.6358 641.028 30.8227Z" stroke="white"/>
<path fill-rule="evenodd" clip-rule="evenodd" d="M667.323 20.2754C683.073 -41.454 716.426 -101.667 772.495 -138.519C802.228 -158.059 836.744 -171.549 869.882 -184.876C907.446 -199.981 946.692 -211.705 986.776 -217.521C1036.69 -224.766 1117.52 -231.296 1143.59 -176.836C1169.47 -122.78 1104.07 -74.9376 1065.4 -47.6735C1040.6 -30.2079 1014.07 -14.1775 990.376 4.91601C977.53 15.2674 967.634 27.2281 956.763 39.3689C926.718 73.0078 883.885 99.6382 840.227 113.854C797.914 127.635 745.568 133.737 700.903 129.183C681.631 127.225 667.855 120.621 662.027 101.844C653.95 75.7417 660.812 45.7748 667.323 20.2754Z" stroke="white"/>
<path fill-rule="evenodd" clip-rule="evenodd" d="M693.451 3.64959C709.098 -50.7008 742.847 -100.343 792.074 -132.963C847.256 -169.53 918.311 -189.85 983.62 -200.183C1018.33 -205.671 1093.56 -220.552 1111.26 -177.964C1128.95 -135.376 1077.8 -93.4064 1048.36 -70.3026C1012.63 -42.3045 974.102 -15.2716 935.624 9.84942C902.192 31.691 866.518 54.0215 830.307 70.8884C809.884 80.4569 788.609 88.2695 766.735 94.2336C750.538 98.6143 729.941 105.148 712.959 101.887C670.126 93.6519 685.968 29.6368 693.451 3.64959Z" stroke="white"/>
<path fill-rule="evenodd" clip-rule="evenodd" d="M725.703 -12.6258C760.034 -115.409 868.805 -165.959 973.533 -183.579C997.869 -187.669 1066.09 -202.415 1079.69 -171.017C1092.88 -140.575 1050.95 -104.473 1031.33 -87.3686C970.508 -34.3666 895.369 4.93189 824.168 43.8642C801.944 56.0162 761.861 82.3868 734.292 70.2224C704.36 56.9906 718.591 8.6867 725.703 -12.6258Z" stroke="white"/>
<path fill-rule="evenodd" clip-rule="evenodd" d="M760.869 -32.4087C790.725 -108.101 877.563 -151.513 957.402 -165.824C976.957 -169.326 1026.62 -180.229 1041.43 -159.106C1055.14 -139.567 1022.43 -111.255 1010.19 -100.004C982.949 -74.9517 950.663 -54.3135 918.766 -34.4762C889.274 -16.1229 859.463 2.68989 828.431 18.212C812.086 26.3828 781.431 43.8173 762.857 31.2009C742.86 17.6284 754.24 -15.6013 760.869 -32.4087Z" stroke="white"/>
<path fill-rule="evenodd" clip-rule="evenodd" d="M-199.09 94.7147C-199.913 46.2227 -226.819 -4.17438 -213.531 -53.5848C-202.619 -94.1655 -147.687 -97.5535 -114.733 -115.939C-88.5455 -130.545 -73.684 -156.42 -59.5219 -181.247C-46.7974 -203.535 -35.368 -226.493 -21.9635 -248.416C-13.2863 -262.588 1.61406 -290.417 20.4321 -290.92C38.4472 -291.404 54.9664 -269.717 65.4309 -256.898C79.075 -240.188 91.1714 -222.373 104.42 -205.396C126.748 -176.76 153.538 -155.564 184.213 -135.503C219.12 -112.677 254.604 -90.6308 290.665 -69.3642C317.215 -53.6593 343.946 -38.0723 369.466 -20.8162C385.474 -9.9885 420.804 10.3267 420.967 30.2882C421.044 39.8129 411.622 50.3614 405.27 57.9749C394.52 70.8627 382.268 82.646 369.978 94.1749C347.086 115.65 323.224 136.152 299.62 156.901C268.984 183.831 239.721 210.32 212.789 240.892C184.944 272.538 158.343 305.226 131.197 337.467C112.813 359.308 94.448 383.837 67.9305 397.24C34.7172 413.993 7.45503 396.327 -26.1338 396.123C-55.0279 395.943 -52.8974 331.808 -56.5691 313.975C-60.2537 295.924 -68.3741 279.121 -71.5212 261.027C-75.4454 238.441 -75.4972 215.334 -76.4621 192.506C-77.6342 164.583 -78.1004 138.001 -109.254 127.353C-126.985 121.303 -146.165 120.031 -164.517 116.407C-176.406 114.056 -198.831 110.035 -199.09 94.7147Z" stroke="white"/>
<path fill-rule="evenodd" clip-rule="evenodd" d="M-184.886 86.0885C-187.914 45.4402 -205.807 -6.58674 -188.887 -48.5463C-174.431 -84.4033 -129.221 -89.0517 -98.7789 -107.888C-73.648 -123.423 -62.4607 -148.847 -49.8985 -173.822C-39.8202 -193.857 -30.0467 -214.085 -18.6064 -233.48C-10.1754 -247.773 2.69811 -271.904 20.2281 -274.862C35.9877 -277.522 52.8886 -256.219 61.7347 -245.381C74.6406 -229.559 85.6787 -212.376 97.0801 -195.554C117.113 -166.005 137.627 -139.432 166.947 -117.725C196.397 -95.9248 228.617 -79.6244 261.18 -62.6592C286.655 -49.3852 312 -35.726 336.203 -20.4013C354.233 -8.99171 380.155 5.61213 388.404 25.958C394.935 42.0533 361.814 68.7628 352.047 78.19C331.942 97.5727 310.638 115.768 289.294 133.852C263.275 155.889 236.425 175.159 213.448 200.297C172.35 245.239 137.996 301.206 85.1145 334.608C53.2193 354.755 17.7248 359.907 -17.7504 356.893C-31.7977 355.7 -35.1701 336.702 -36.9406 325.622C-39.885 307.215 -40.2547 288.491 -42.5181 270.01C-44.6388 252.709 -49.3472 236.272 -53.1412 219.306C-56.9805 202.117 -58.0571 184.506 -60.8847 167.199C-62.6358 156.454 -64.3674 143.951 -72.0266 135.313C-79.9518 126.37 -93.0264 122.623 -104.454 119.777C-125.914 114.482 -182.745 114.774 -184.886 86.0885Z" stroke="white"/>
<path fill-rule="evenodd" clip-rule="evenodd" d="M-166.603 69.0724C-171.697 31.7603 -178.828 -14.7123 -158.077 -49.0889C-141.116 -77.1971 -104.942 -83.2606 -79.1039 -101.575C-57.6135 -116.806 -49.4962 -141.029 -38.8289 -163.539C-30.0758 -182.002 -21.2772 -200.547 -10.6683 -218.117C-2.62236 -231.442 7.74648 -249.508 23.7215 -254.157C37.3801 -258.129 52.81 -240.335 60.3822 -231.479C73.2752 -216.385 83.7867 -199.473 94.2269 -182.784C111.305 -155.477 127.02 -126.307 151.327 -104.095C174.946 -82.5407 203.002 -69.8178 231.585 -55.5124C253.477 -44.5521 275.234 -33.1698 295.861 -20.0994C311.7 -10.07 331.328 1.815 339.582 18.5037C346.719 32.896 328.395 49.9322 319.24 60.0857C304.121 76.8426 287.342 92.2156 270.796 107.651C252.939 124.302 233.162 139.663 215.882 156.724C179.546 192.627 150.516 232.378 105.731 259.884C76.7271 277.702 37.698 293.888 3.41206 290.978C-21.2447 288.88 -19.6226 236.611 -21.9909 219.91C-25.8841 192.602 -33.4044 163.91 -45.35 138.756C-55.6085 117.202 -79.9863 110.555 -102.411 105.72C-116.459 102.686 -131.182 101.047 -144.769 96.3552C-160.497 90.9185 -164.468 84.7122 -166.603 69.0724Z" stroke="white"/>
<path fill-rule="evenodd" clip-rule="evenodd" d="M-149.55 51.5831C-152.583 20.0376 -151.901 -17.2655 -132.256 -44.5535C-115.04 -68.4554 -84.3876 -74.7484 -62.5868 -93.5774C-45.5721 -108.267 -38.8897 -132.219 -29.7394 -151.645C-18.5565 -175.398 -2.88618 -219.268 25.3244 -228.206C51.5672 -236.516 79.0114 -183.434 88.5123 -167.605C103.553 -142.551 116.132 -115.077 134.374 -91.9403C150.083 -72.0221 171.131 -61.011 193.471 -49.1783C221.954 -34.0654 265.198 -16.1452 280.427 13.309C291.779 35.2564 254.866 67.8849 242.261 83.0913C229.078 98.9761 219.148 117.805 205.543 133.13C184.074 157.312 149.284 176.782 120.561 191.64C92.6361 206.093 56.3728 222.09 24.6944 221.137C3.87421 220.515 -0.0872034 189.716 -4.52919 174.672C-10.8934 153.284 -19.3553 134.119 -37.5324 119.573C-56.0342 104.765 -77.8415 97.7872 -100.766 91.681C-112.533 88.5688 -125.957 86.1413 -136.484 79.8546C-148.115 73.0139 -148.381 63.7083 -149.55 51.5831Z" stroke="white"/>
<path fill-rule="evenodd" clip-rule="evenodd" d="M-128.771 33.4002C-128.603 6.14717 -122.098 -22.9144 -102.808 -43.9364C-86.7418 -61.4465 -61.5938 -67.2996 -46.2138 -85.1999C-34.0315 -99.3715 -27.8302 -119.266 -19.6742 -135.723C-9.69915 -155.891 4.40569 -191.121 29.2105 -198.12C53.4199 -204.933 74.8328 -166.129 84.1152 -150.774C97.7087 -128.26 108.713 -104.395 122.429 -81.942C133.175 -64.3266 146.315 -52.9733 163.812 -41.6199C184.351 -28.2845 213.007 -13.5122 223.979 8.55038C231.889 24.5244 212.742 50.0492 205.79 64.1217C201.129 73.5735 196.863 83.174 194.52 93.4187C192.695 101.396 192.513 108.779 187.225 115.63C173.91 132.861 144.716 135.11 124.909 140.789C98.602 148.327 70.69 156.893 43.16 158.529C26.2394 159.551 17.6043 144.617 7.94648 134.112C-3.46556 121.694 -19.6224 112.762 -33.7337 103.391C-52.3568 91.0031 -72.624 83.2979 -93.5903 75.4069C-103.047 71.8455 -114.155 68.3521 -121.483 61.2725C-129.134 53.9328 -128.83 43.236 -128.771 33.4002Z" stroke="white"/>
<path fill-rule="evenodd" clip-rule="evenodd" d="M-106.948 17.2213C-103.605 -5.66755 -93.1852 -27.5439 -75.5864 -43.7245C-62.0957 -56.1472 -44.1793 -63.1412 -33.3518 -78.0671C-23.2629 -91.9805 -16.2325 -107.801 -7.89959 -122.677C0.919257 -138.404 14.0212 -164.691 34.3609 -168.97C56.2817 -173.579 73.1677 -147.063 82.5179 -132.367C94.3304 -113.795 103.305 -93.8129 113.867 -74.6012C121.823 -60.2818 131.973 -47.1858 143.978 -35.7491C156.568 -23.6929 173.642 -12.146 180.011 4.4321C185.642 19.1157 175.106 36.8802 173.246 51.7688C171.257 67.6761 174.743 84.3846 163.715 98.0434C140.971 126.212 83.8916 120.988 51.2599 121.591C19.0624 122.212 -6.82397 104.975 -32.8788 88.5773C-50.0888 77.7509 -68.0116 68.5829 -85.6558 58.4957C-103.643 48.2035 -109.89 37.3647 -106.948 17.2213Z" stroke="white"/>
<path fill-rule="evenodd" clip-rule="evenodd" d="M-86.6721 4.12056C-76.7846 -29.0388 -45.9032 -46.6628 -23.8265 -71.7219C-5.76318 -92.2367 7.78107 -134.721 38.2022 -140.341C72.7403 -146.719 93.4165 -90.4276 105.424 -68.7068C118.748 -44.6175 142.478 -25.0228 152.346 0.477646C157.533 13.862 153.079 26.3511 150.317 39.7292C147.289 54.419 145.013 69.4383 134.562 81.2623C113.989 104.531 73.8101 104.369 44.8738 105.01C14.9195 105.675 -11.579 89.7293 -35.4451 73.8148C-60.7571 56.9616 -96.7995 38.1253 -86.6721 4.12056Z" stroke="white"/>
<path fill-rule="evenodd" clip-rule="evenodd" d="M-70.1116 -4.87093C-58.9702 -28.4959 -35.5576 -47.7024 -16.5598 -65.8337C-0.703311 -80.9492 16.3549 -111.378 40.5315 -113.547C68.9466 -116.106 86.168 -83.6127 97.3486 -63.6893C108.353 -44.112 124.209 -23.441 130.302 -1.95414C136.657 20.4287 119.736 50.5734 103.598 66.4119C85.5999 84.0735 56.153 90.5992 30.8857 89.8948C4.42983 89.1779 -19.8448 74.5815 -39.881 59.4412C-61.3016 43.2566 -83.0685 22.5546 -70.1116 -4.87093Z" stroke="white"/>
<path fill-rule="evenodd" clip-rule="evenodd" d="M-54.7451 -9.31871C-44.1028 -28.9684 -25.6552 -45.5907 -8.64575 -60.4178C4.48066 -71.8646 23.8499 -91.3286 42.7878 -91.8053C63.6214 -92.3315 81.278 -75.9939 89.5604 -59.2477C97.7252 -42.7306 106.328 -22.0223 107.55 -3.90172C110.204 35.5586 56.1692 79.7611 15.5936 76.1642C-22.8769 72.7531 -75.9644 29.8321 -54.7451 -9.31871Z" stroke="white"/>
<path fill-rule="evenodd" clip-rule="evenodd" d="M-40.534 -11.4853C-25.8523 -37.0873 9.80975 -73.5864 42.8256 -74.4532C80.7222 -75.4438 90.2356 -34.8274 85.2959 -5.39285C80.2779 24.6484 36.5857 68.1315 1.74692 62.2558C-32.2555 56.5224 -57.9338 18.8779 -40.534 -11.4853Z" stroke="white"/>
<path fill-rule="evenodd" clip-rule="evenodd" d="M-25.5291 -15.6251C-13.0986 -37.0612 13.4271 -63.8363 41.0929 -64.6467C74.0573 -65.6056 73.4355 -31.314 65.9603 -9.97072C58.1872 12.1892 23.9532 50.038 -4.91093 44.0619C-32.9783 38.228 -37.4414 4.92012 -25.5291 -15.6251Z" stroke="white"/>
<path fill-rule="evenodd" clip-rule="evenodd" d="M-12.4601 -18.0922C-4.25516 -33.3879 16.28 -52.7198 35.8018 -53.3384C59.6632 -54.0819 55.0247 -26.8835 48.8596 -13.7559C41.5317 1.86462 16.9687 29.0069 -3.64448 24.6081C-23.9393 20.2781 -19.2294 -5.48954 -12.4601 -18.0922Z" stroke="white"/>
</g>
</svg>
