<svg width="24" height="25" viewBox="0 0 24 25" fill="none" xmlns="http://www.w3.org/2000/svg">
<path opacity="0.1" fill-rule="evenodd" clip-rule="evenodd" d="M0 12.3857C0 5.75833 5.37258 0.385742 12 0.385742C18.6274 0.385742 24 5.75833 24 12.3857C24 19.0132 18.6274 24.3857 12 24.3857C5.37258 24.3857 0 19.0132 0 12.3857Z" fill="#F9F8F9"/>
<path fill-rule="evenodd" clip-rule="evenodd" d="M12.0007 5.98584C10.2625 5.98584 10.0444 5.99344 9.36174 6.02451C8.6804 6.05571 8.21533 6.16358 7.80839 6.32184C7.38745 6.48531 7.03038 6.70398 6.67464 7.05985C6.31864 7.41559 6.09997 7.77266 5.93597 8.19346C5.7773 8.60053 5.6693 9.06574 5.63863 9.74681C5.6081 10.4295 5.6001 10.6478 5.6001 12.3859C5.6001 14.1241 5.60783 14.3415 5.63876 15.0242C5.6701 15.7055 5.77797 16.1706 5.9361 16.5775C6.0997 16.9985 6.31837 17.3556 6.67424 17.7113C7.02985 18.0673 7.38692 18.2865 7.80759 18.45C8.21479 18.6082 8.68 18.7161 9.3612 18.7473C10.0439 18.7784 10.2619 18.786 11.9999 18.786C13.7382 18.786 13.9557 18.7784 14.6383 18.7473C15.3197 18.7161 15.7853 18.6082 16.1925 18.45C16.6133 18.2865 16.9698 18.0673 17.3254 17.7113C17.6814 17.3556 17.9001 16.9985 18.0641 16.5777C18.2214 16.1706 18.3294 15.7054 18.3614 15.0243C18.3921 14.3417 18.4001 14.1241 18.4001 12.3859C18.4001 10.6478 18.3921 10.4296 18.3614 9.74695C18.3294 9.0656 18.2214 8.60053 18.0641 8.1936C17.9001 7.77266 17.6814 7.41559 17.3254 7.05985C16.9694 6.70385 16.6134 6.48518 16.1921 6.32184C15.7841 6.16358 15.3187 6.05571 14.6374 6.02451C13.9547 5.99344 13.7374 5.98584 11.9987 5.98584H12.0007ZM11.4265 7.13917C11.5969 7.1389 11.7871 7.13917 12.0007 7.13917C13.7095 7.13917 13.912 7.1453 14.5868 7.17597C15.2108 7.2045 15.5495 7.30877 15.7751 7.39637C16.0738 7.51237 16.2867 7.65104 16.5106 7.87504C16.7346 8.09904 16.8733 8.31238 16.9895 8.61105C17.0771 8.83639 17.1815 9.17506 17.2099 9.79906C17.2406 10.4737 17.2473 10.6764 17.2473 12.3844C17.2473 14.0924 17.2406 14.2951 17.2099 14.9698C17.1814 15.5938 17.0771 15.9325 16.9895 16.1578C16.8735 16.4565 16.7346 16.6691 16.5106 16.893C16.2866 17.117 16.0739 17.2557 15.7751 17.3717C15.5498 17.4597 15.2108 17.5637 14.5868 17.5922C13.9122 17.6229 13.7095 17.6295 12.0007 17.6295C10.2917 17.6295 10.0892 17.6229 9.41451 17.5922C8.7905 17.5634 8.45183 17.4591 8.2261 17.3715C7.92743 17.2555 7.71409 17.1169 7.49009 16.8929C7.26609 16.6689 7.12742 16.4561 7.01115 16.1573C6.92355 15.9319 6.81915 15.5933 6.79075 14.9692C6.76008 14.2946 6.75395 14.0919 6.75395 12.3828C6.75395 10.6737 6.76008 10.4721 6.79075 9.79746C6.81928 9.17345 6.92355 8.83478 7.01115 8.60918C7.12715 8.31051 7.26609 8.09718 7.49009 7.87317C7.71409 7.64917 7.92743 7.5105 8.2261 7.39424C8.4517 7.30624 8.7905 7.20223 9.41451 7.17357C10.0049 7.1469 10.2337 7.1389 11.4265 7.13757V7.13917ZM15.417 8.20185C14.993 8.20185 14.649 8.54545 14.649 8.96959C14.649 9.39359 14.993 9.7376 15.417 9.7376C15.841 9.7376 16.185 9.39359 16.185 8.96959C16.185 8.54558 15.841 8.20185 15.417 8.20185ZM12.0007 9.09919C10.1856 9.09919 8.71401 10.5708 8.71401 12.3859C8.71401 14.201 10.1856 15.6719 12.0007 15.6719C13.8158 15.6719 15.2869 14.201 15.2869 12.3859C15.2869 10.5708 13.8158 9.09919 12.0007 9.09919ZM12.0007 10.2525C13.1788 10.2525 14.134 11.2076 14.134 12.3859C14.134 13.564 13.1788 14.5192 12.0007 14.5192C10.8224 14.5192 9.86733 13.564 9.86733 12.3859C9.86733 11.2076 10.8224 10.2525 12.0007 10.2525Z" fill="white"/>
</svg>
