<svg width="417" height="118" viewBox="0 0 417 118" fill="none" xmlns="http://www.w3.org/2000/svg">
<ellipse cx="54.5" cy="50.2509" rx="54.5" ry="50.2509" fill="#094B72"/>
<path d="M56.964 76.3458C52.9087 76.3458 49.2747 75.6875 46.062 74.3708C42.8493 73.0541 40.2687 71.1055 38.32 68.5248C36.424 65.9441 35.4233 62.8368 35.318 59.2028H49.696C49.9067 61.2568 50.6177 62.8368 51.829 63.9428C53.0403 64.9961 54.6203 65.5228 56.569 65.5228C58.5703 65.5228 60.1503 65.0751 61.309 64.1798C62.4677 63.2318 63.047 61.9415 63.047 60.3088C63.047 58.9395 62.573 57.8071 61.625 56.9118C60.7297 56.0165 59.5973 55.2791 58.228 54.6998C56.9113 54.1205 55.0153 53.4621 52.54 52.7248C48.9587 51.6188 46.0357 50.5128 43.771 49.4068C41.5063 48.3008 39.5577 46.6681 37.925 44.5088C36.2923 42.3495 35.476 39.5318 35.476 36.0558C35.476 30.8945 37.3457 26.8655 41.085 23.9688C44.8243 21.0195 49.696 19.5448 55.7 19.5448C61.8093 19.5448 66.7337 21.0195 70.473 23.9688C74.2123 26.8655 76.2137 30.9208 76.477 36.1348H61.862C61.7567 34.3441 61.0983 32.9485 59.887 31.9478C58.6757 30.8944 57.122 30.3678 55.226 30.3678C53.5933 30.3678 52.2767 30.8154 51.276 31.7108C50.2753 32.5534 49.775 33.7911 49.775 35.4238C49.775 37.2144 50.6177 38.6101 52.303 39.6108C53.9883 40.6115 56.6217 41.6911 60.203 42.8498C63.7843 44.0611 66.681 45.2198 68.893 46.3258C71.1577 47.4318 73.1063 49.0381 74.739 51.1448C76.3717 53.2515 77.188 55.9638 77.188 59.2818C77.188 62.4418 76.3717 65.3121 74.739 67.8928C73.159 70.4735 70.8417 72.5275 67.787 74.0548C64.7323 75.5821 61.1247 76.3458 56.964 76.3458Z" fill="white"/>
<path d="M131.904 69.1008C129.645 69.1008 127.621 68.7341 125.832 68.0008C124.043 67.2675 122.605 66.1821 121.52 64.7448C120.464 63.3075 119.907 61.5768 119.848 59.5528H127.856C127.973 60.6968 128.369 61.5768 129.044 62.1928C129.719 62.7795 130.599 63.0728 131.684 63.0728C132.799 63.0728 133.679 62.8235 134.324 62.3248C134.969 61.7968 135.292 61.0781 135.292 60.1688C135.292 59.4061 135.028 58.7755 134.5 58.2768C134.001 57.7781 133.371 57.3675 132.608 57.0448C131.875 56.7221 130.819 56.3555 129.44 55.9448C127.445 55.3288 125.817 54.7128 124.556 54.0968C123.295 53.4808 122.209 52.5715 121.3 51.3688C120.391 50.1661 119.936 48.5968 119.936 46.6608C119.936 43.7861 120.977 41.5421 123.06 39.9288C125.143 38.2861 127.856 37.4648 131.2 37.4648C134.603 37.4648 137.345 38.2861 139.428 39.9288C141.511 41.5421 142.625 43.8008 142.772 46.7048H134.632C134.573 45.7075 134.207 44.9301 133.532 44.3728C132.857 43.7861 131.992 43.4928 130.936 43.4928C130.027 43.4928 129.293 43.7421 128.736 44.2408C128.179 44.7101 127.9 45.3995 127.9 46.3088C127.9 47.3061 128.369 48.0835 129.308 48.6408C130.247 49.1981 131.713 49.7995 133.708 50.4448C135.703 51.1195 137.316 51.7648 138.548 52.3808C139.809 52.9968 140.895 53.8915 141.804 55.0648C142.713 56.2381 143.168 57.7488 143.168 59.5968C143.168 61.3568 142.713 62.9555 141.804 64.3928C140.924 65.8301 139.633 66.9741 137.932 67.8248C136.231 68.6755 134.221 69.1008 131.904 69.1008ZM184.542 44.2408L177.898 68.7928H169.582L165.71 52.8648L161.706 68.7928H153.434L146.746 44.2408H154.27L157.746 61.7968L161.882 44.2408H169.846L174.026 61.7088L177.458 44.2408H184.542ZM192.696 41.6888C191.376 41.6888 190.29 41.3075 189.44 40.5448C188.618 39.7528 188.208 38.7848 188.208 37.6408C188.208 36.4675 188.618 35.4995 189.44 34.7368C190.29 33.9448 191.376 33.5488 192.696 33.5488C193.986 33.5488 195.042 33.9448 195.864 34.7368C196.714 35.4995 197.14 36.4675 197.14 37.6408C197.14 38.7848 196.714 39.7528 195.864 40.5448C195.042 41.3075 193.986 41.6888 192.696 41.6888ZM196.436 44.2408V68.7928H188.912V44.2408H196.436ZM215.708 50.4888H211.66V68.7928H204.136V50.4888H201.408V44.2408H204.136V43.5368C204.136 40.5155 205.001 38.2275 206.732 36.6728C208.463 35.0888 211 34.2968 214.344 34.2968C214.901 34.2968 215.312 34.3115 215.576 34.3408V40.7208C214.139 40.6328 213.127 40.8381 212.54 41.3368C211.953 41.8355 211.66 42.7301 211.66 44.0208V44.2408H215.708V50.4888ZM234.428 62.4128V68.7928H230.6C227.872 68.7928 225.745 68.1328 224.22 66.8128C222.694 65.4635 221.932 63.2781 221.932 60.2568V50.4888H218.94V44.2408H221.932V38.2568H229.456V44.2408H234.384V50.4888H229.456V60.3448C229.456 61.0781 229.632 61.6061 229.984 61.9288C230.336 62.2515 230.922 62.4128 231.744 62.4128H234.428ZM260.227 37.9048V43.9328H247.643V50.4448H257.059V56.2968H247.643V68.7928H240.119V37.9048H260.227ZM269.465 41.6888C268.145 41.6888 267.06 41.3075 266.209 40.5448C265.388 39.7528 264.977 38.7848 264.977 37.6408C264.977 36.4675 265.388 35.4995 266.209 34.7368C267.06 33.9448 268.145 33.5488 269.465 33.5488C270.756 33.5488 271.812 33.9448 272.633 34.7368C273.484 35.4995 273.909 36.4675 273.909 37.6408C273.909 38.7848 273.484 39.7528 272.633 40.5448C271.812 41.3075 270.756 41.6888 269.465 41.6888ZM273.205 44.2408V68.7928H265.681V44.2408H273.205ZM294.678 68.7928L289.97 61.9728L286.01 68.7928H277.87L285.966 56.2528L277.65 44.2408H286.098L290.806 51.0168L294.766 44.2408H302.906L294.678 56.6048L303.126 68.7928H294.678Z" fill="#2D2F30"/>
</svg>
