<?xml version="1.0" standalone="no"?>
<!DOCTYPE svg PUBLIC "-//W3C//DTD SVG 20010904//EN"
 "http://www.w3.org/TR/2001/REC-SVG-20010904/DTD/svg10.dtd">
<svg version="1.0" xmlns="http://www.w3.org/2000/svg"
 width="1081.000000pt" height="1280.000000pt" viewBox="0 0 1081.000000 1280.000000"
 preserveAspectRatio="xMidYMid meet">
<metadata>
Created by potrace 1.15, written by Peter Selinger 2001-2017
</metadata>
<g transform="translate(0.000000,1280.000000) scale(0.100000,-0.100000)"
fill="#000000" stroke="none">
<path d="M6380 12784 c-319 -30 -786 -141 -1069 -253 -450 -179 -836 -455
-1136 -812 -44 -52 -114 -132 -156 -179 -233 -255 -399 -553 -484 -863 -63
-234 -95 -572 -76 -819 14 -184 48 -483 61 -543 20 -86 13 -124 -32 -182 -141
-183 -412 -378 -707 -508 -69 -30 -151 -67 -181 -83 -54 -26 -55 -28 -58 -73
-3 -39 2 -53 30 -90 49 -63 139 -132 243 -185 104 -53 145 -88 145 -121 0 -34
-69 -104 -175 -178 -108 -75 -155 -125 -155 -163 0 -38 64 -126 117 -161 25
-17 67 -37 95 -47 27 -9 47 -21 45 -27 -2 -7 -46 -37 -98 -68 -153 -92 -204
-157 -185 -234 7 -29 57 -57 136 -75 127 -29 177 -75 167 -150 -3 -21 -28 -96
-57 -166 -62 -153 -74 -194 -91 -297 -31 -187 47 -373 189 -450 81 -44 149
-55 392 -62 124 -3 270 -10 325 -16 161 -15 981 -187 995 -208 3 -6 12 -224
18 -483 22 -846 68 -1278 189 -1753 38 -150 120 -391 185 -544 22 -51 36 -97
31 -101 -4 -4 -43 -32 -85 -63 -92 -67 -100 -80 -213 -367 -258 -651 -419
-1023 -574 -1325 -169 -330 -287 -501 -467 -675 -255 -247 -560 -409 -819
-435 -76 -8 -70 -8 -135 1 -45 6 -62 14 -97 48 -36 34 -45 51 -56 101 -15 75
-14 445 2 641 6 76 18 222 26 324 20 259 112 1197 150 1525 22 198 48 462 80
810 9 94 20 202 26 240 37 257 59 593 65 1030 7 444 3 524 -37 675 -81 303
-159 421 -380 574 -135 94 -272 201 -389 306 -47 42 -150 128 -230 192 -178
143 -587 510 -656 589 -111 128 -364 309 -432 309 -33 0 -33 -1 -27 -32 13
-58 19 -67 308 -490 48 -69 87 -129 87 -132 0 -20 -164 15 -258 55 -81 35
-209 126 -250 178 -104 132 -155 314 -192 691 -23 234 -46 365 -86 493 -33
103 -72 183 -85 170 -19 -19 -57 -309 -63 -474 -6 -180 -13 -221 -35 -196 -8
11 -15 93 -21 269 -11 292 -23 400 -56 516 -28 96 -51 146 -87 185 -33 34 -45
34 -58 0 -6 -16 -16 -35 -24 -43 -10 -12 -11 -40 -4 -130 4 -63 15 -252 23
-420 33 -651 67 -856 180 -1096 105 -221 390 -612 657 -899 149 -160 357 -389
377 -415 103 -132 648 -871 662 -899 78 -148 34 -618 -119 -1291 -16 -69 -32
-145 -36 -170 -11 -70 -137 -570 -237 -935 -129 -477 -254 -912 -465 -1620
-52 -176 -117 -396 -144 -489 -27 -93 -56 -180 -64 -193 l-15 -23 4990 0 4990
0 0 899 c0 861 -1 900 -18 913 -56 40 -235 320 -328 513 -161 336 -272 733
-324 1159 -43 357 -57 532 -76 921 -8 176 -19 408 -24 515 -17 360 -29 663
-35 905 -3 132 -10 375 -15 540 -5 165 -14 444 -20 620 -6 176 -15 446 -20
600 -6 154 -12 377 -15 495 -8 342 -33 855 -55 1144 -6 76 -9 141 -6 143 11
11 26 -52 70 -284 67 -356 123 -764 157 -1130 5 -57 13 -151 19 -210 21 -225
66 -878 95 -1358 8 -132 21 -346 30 -475 8 -129 24 -390 36 -580 11 -190 24
-410 29 -490 6 -80 14 -215 19 -300 38 -600 114 -1222 192 -1580 64 -289 178
-741 230 -908 16 -51 29 -101 29 -111 0 -10 7 -24 15 -31 13 -11 15 4 15 121
0 115 -3 145 -25 214 -137 438 -263 975 -300 1280 -8 72 -20 166 -25 210 -22
182 -30 268 -40 415 -6 85 -15 207 -20 270 -9 105 -20 261 -51 715 -6 88 -15
216 -20 285 -9 136 -31 466 -54 845 -9 132 -22 346 -30 475 -9 129 -22 336
-30 460 -8 124 -17 245 -20 270 -2 25 -12 128 -20 230 -61 743 -170 1426 -315
1975 -22 83 -55 218 -75 300 -97 419 -186 695 -311 969 -274 600 -657 1039
-1183 1356 -371 223 -840 401 -1206 459 -256 41 -461 48 -705 25z m-2462
-1511 c-105 -243 -169 -466 -208 -721 -25 -160 -60 -511 -60 -597 0 -67 -12
-189 -41 -405 -31 -229 -50 -261 -70 -119 -77 549 -54 965 76 1364 34 104 139
318 205 420 58 89 142 196 148 190 3 -2 -20 -62 -50 -132z m1228 -5714 c60
-28 124 -62 142 -75 l32 -25 0 -277 c0 -307 21 -773 45 -1006 35 -335 86 -593
170 -864 25 -79 45 -150 45 -157 0 -17 -92 -85 -115 -85 -9 0 -49 -16 -89 -35
-113 -54 -101 -63 -163 120 -195 578 -265 1091 -234 1725 28 567 39 730 51
730 4 0 56 -23 116 -51z m377 -401 c228 -362 453 -1049 484 -1479 6 -82 4 -90
-24 -150 -29 -62 -98 -155 -127 -171 -18 -10 -55 90 -120 319 -137 487 -216
932 -251 1412 -4 52 -9 100 -12 107 -3 8 0 14 6 14 6 0 26 -24 44 -52z m-108
-588 c44 -352 155 -832 275 -1184 l30 -89 -42 -54 c-22 -30 -44 -50 -49 -46
-8 9 -71 202 -93 290 -69 265 -143 805 -152 1093 -5 193 6 189 31 -10z"/>
</g>
</svg>
