<?xml version="1.0" standalone="no"?>
<!DOCTYPE svg PUBLIC "-//W3C//DTD SVG 20010904//EN"
 "http://www.w3.org/TR/2001/REC-SVG-20010904/DTD/svg10.dtd">
<svg version="1.0" xmlns="http://www.w3.org/2000/svg"
 width="926.000000pt" height="1280.000000pt" viewBox="0 0 926.000000 1280.000000"
 preserveAspectRatio="xMidYMid meet">
<metadata>
Created by potrace 1.15, written by Peter Selinger 2001-2017
</metadata>
<g transform="translate(0.000000,1280.000000) scale(0.100000,-0.100000)"
fill="#795548" stroke="none">
<path d="M6921 12789 c-210 -24 -388 -118 -499 -261 -139 -181 -162 -443 -56
-653 73 -142 201 -286 318 -356 62 -38 59 -24 40 -150 l-6 -41 -27 25 c-14 13
-46 39 -70 56 -80 57 -155 33 -182 -58 l-12 -41 -66 63 c-81 78 -141 105 -195
87 -48 -16 -100 -78 -132 -160 l-26 -67 -121 -7 c-66 -3 -181 -6 -255 -6
l-135 0 59 38 c78 51 114 94 114 138 0 46 -21 76 -81 114 l-49 32 52 38 c67
51 101 93 144 182 67 135 80 200 46 231 -57 51 -205 72 -401 56 l-133 -11 -83
43 -82 43 1 57 c1 74 -20 104 -99 144 l-60 30 -195 0 c-190 0 -197 -1 -251
-26 -66 -31 -100 -74 -107 -135 -4 -42 -6 -44 -36 -44 -64 0 -150 -28 -173
-55 -13 -14 -23 -33 -23 -41 0 -10 -13 -14 -47 -14 -130 0 -273 -46 -347 -111
-28 -25 -58 -66 -78 -106 -43 -87 -44 -152 -4 -239 35 -78 81 -123 143 -140
26 -7 42 -13 34 -13 -32 -2 -102 -45 -116 -71 -12 -24 -12 -30 1 -49 29 -40
137 -81 335 -125 21 -4 31 -19 53 -76 16 -39 27 -72 25 -74 -2 -1 -35 -13 -73
-25 -148 -47 -214 -92 -185 -127 10 -12 -4 -14 -100 -14 -97 0 -112 2 -118 18
-75 224 -218 224 -401 1 -36 -45 -62 -67 -72 -64 -85 26 -552 97 -795 121
-235 24 -673 24 -845 1 -260 -35 -455 -96 -531 -164 -102 -92 -107 -263 -9
-334 89 -65 664 -60 1905 16 132 8 249 15 260 15 18 0 20 -7 20 -83 0 -64 5
-91 22 -123 37 -70 126 -134 186 -134 48 0 139 96 182 190 18 39 20 41 54 36
20 -3 106 -8 192 -12 l157 -6 22 -40 c24 -42 100 -98 134 -98 33 -1 -1 -16
-52 -24 -63 -9 -139 -51 -157 -86 -8 -16 -15 -53 -15 -82 -1 -29 -7 -93 -14
-141 -20 -132 -1 -189 87 -258 45 -36 162 -98 261 -138 38 -15 29 -25 -108
-116 -165 -109 -275 -158 -492 -219 -104 -29 -196 -56 -205 -60 -12 -5 -22 15
-53 107 -40 124 -76 187 -105 187 -59 0 -202 -266 -201 -374 1 -44 32 -108 78
-158 35 -38 40 -50 44 -103 3 -33 9 -68 13 -77 9 -22 16 -19 -165 -53 -198
-37 -549 -126 -738 -186 -490 -158 -987 -406 -1317 -657 -325 -248 -607 -576
-774 -901 -246 -479 -296 -1099 -136 -1707 154 -587 549 -1208 1206 -1899 l86
-90 7 -87 c13 -177 87 -398 212 -636 85 -162 174 -298 386 -589 374 -515 576
-762 838 -1024 371 -373 604 -520 1049 -663 403 -130 878 -194 1244 -168 325
23 549 75 764 177 369 174 775 579 1295 1290 136 187 441 617 560 790 201 292
393 655 471 892 48 143 87 314 87 378 0 47 8 61 104 180 465 573 750 1149 833
1680 21 135 23 428 4 565 -56 412 -204 832 -435 1237 -191 334 -315 477 -555
641 -450 308 -1324 667 -2388 981 l-73 22 0 52 c0 56 -27 127 -63 166 -33 35
-80 62 -212 121 -187 84 -237 122 -281 215 -23 47 -23 51 -7 60 10 6 41 33 70
62 73 72 97 151 97 318 0 109 -2 125 -26 176 -31 69 -87 131 -145 166 l-43 25
0 154 0 154 33 0 c49 0 118 39 139 80 11 21 18 56 18 89 l0 54 158 -7 c86 -3
220 -9 298 -12 l141 -7 17 -47 c20 -56 58 -110 89 -127 55 -31 113 -9 199 75
l57 55 36 -31 c51 -45 148 -92 204 -99 43 -5 51 -2 83 26 20 17 51 60 69 96
l34 65 61 0 c59 0 62 -1 74 -30 17 -41 81 -97 127 -109 60 -17 162 -13 208 8
61 28 141 105 170 166 29 59 37 147 22 242 -8 47 -7 52 13 58 43 14 89 66 105
118 19 64 19 124 0 224 -8 43 -15 79 -15 79 0 1 12 5 26 8 71 18 122 84 234
302 92 179 130 289 130 380 0 172 -137 403 -303 514 -139 93 -428 139 -686
109z"/>
<path d="M7866 11908 c-10 -30 -36 -148 -50 -228 -97 -539 15 -787 375 -833
115 -14 161 -2 188 51 23 46 81 264 81 306 0 39 -39 123 -87 190 -121 168
-496 549 -507 514z"/>
<path d="M7803 10603 c-155 -236 -204 -415 -143 -532 38 -75 161 -161 229
-161 32 0 64 33 136 140 35 52 37 59 31 111 -7 73 -55 214 -123 366 -78 173
-69 168 -130 76z"/>
<path d="M2965 10163 c-133 -71 -324 -290 -356 -407 -24 -88 40 -266 124 -343
54 -50 99 -60 170 -38 142 42 179 148 180 515 0 233 -11 284 -58 287 -17 2
-43 -5 -60 -14z"/>
</g>
</svg>
