<svg width="85" height="110" viewBox="0 0 85 110" fill="none" xmlns="http://www.w3.org/2000/svg">
<path d="M55.1624 64.4904L47.3786 57.8304L55.1624 64.4904ZM49.9732 52.2804C49.9732 53.3007 49.7383 54.3111 49.2819 55.2538C48.8256 56.1965 48.1567 57.0531 47.3134 57.7746C46.4702 58.4961 45.4691 59.0684 44.3673 59.4589C43.2655 59.8494 42.0847 60.0504 40.8921 60.0504C39.6996 60.0504 38.5187 59.8494 37.4169 59.4589C36.3152 59.0684 35.3141 58.4961 34.4708 57.7746C33.6276 57.0531 32.9587 56.1965 32.5023 55.2538C32.0459 54.3111 31.811 53.3007 31.811 52.2804C31.811 50.2196 32.7678 48.2433 34.4708 46.7862C36.1739 45.329 38.4837 44.5104 40.8921 44.5104C43.3006 44.5104 45.6104 45.329 47.3134 46.7862C49.0164 48.2433 49.9732 50.2196 49.9732 52.2804Z" stroke="#2D2F30" stroke-width="2" stroke-linecap="round" stroke-linejoin="round"/>
</svg>
