<svg width="30" height="30" viewBox="0 0 30 30" fill="none" xmlns="http://www.w3.org/2000/svg">
<path d="M28.8433 2.17904C28.7737 1.91498 28.6353 1.67412 28.4422 1.48103C28.2491 1.28795 28.0083 1.14956 27.7442 1.08C24.5817 0.257928 21.2513 0.346079 18.1367 1.33429C15.0221 2.32251 12.2501 4.17057 10.14 6.66555L5.20111 12.5296C2.73384 15.4724 1.16864 19.0649 0.693553 22.8756C0.663084 23.1098 0.686808 23.3479 0.762896 23.5715C0.838984 23.795 0.965403 23.9981 1.1324 24.1651L5.91172 28.9444C6.05482 29.0876 6.22473 29.2012 6.41175 29.2788C6.59878 29.3563 6.79924 29.3961 7.00168 29.3961C7.0461 29.3961 7.09051 29.3939 7.13568 29.3901C11.0049 29.0704 14.6716 27.526 17.6036 24.9812L23.2509 19.7886C25.7547 17.684 27.6095 14.9118 28.5995 11.7944C29.5895 8.67702 29.6741 5.34259 28.8433 2.17904V2.17904ZM19.7977 12.5918C19.3404 12.5918 18.8933 12.4562 18.513 12.2021C18.1327 11.948 17.8363 11.5868 17.6613 11.1642C17.4862 10.7417 17.4404 10.2767 17.5297 9.82814C17.6189 9.37956 17.8391 8.96752 18.1625 8.64411C18.486 8.3207 18.898 8.10045 19.3466 8.01123C19.7952 7.922 20.2601 7.96779 20.6827 8.14282C21.1052 8.31785 21.4664 8.61425 21.7205 8.99454C21.9746 9.37482 22.1102 9.82192 22.1102 10.2793C22.11 10.8925 21.8663 11.4806 21.4327 11.9142C20.999 12.3479 20.411 12.5916 19.7977 12.5918V12.5918Z" fill="#C3E8F1"/>
</svg>
